<?xml version="1.0" encoding="UTF-8" standalone="no"?>
<svg
   width="1041.277"
   height="554.141"
   viewBox="0 0 1041.277 554.141"
   version="1.1"
   id="svg290"
   sodipodi:docname="undraw_docusaurus_react.svg"
   xml:space="preserve"
   inkscape:version="1.2.1 (9c6d41e, 2022-07-14)"
   xmlns:inkscape="http://www.inkscape.org/namespaces/inkscape"
   xmlns:sodipodi="http://sodipodi.sourceforge.net/DTD/sodipodi-0.dtd"
   xmlns="http://www.w3.org/2000/svg"
   xmlns:svg="http://www.w3.org/2000/svg"><defs
     id="defs294"><clipPath
       id="clip0_1102_45357"><rect
         width="141"
         height="42"
         fill="white"
         id="rect5519" /></clipPath></defs><sodipodi:namedview
     id="namedview292"
     pagecolor="#ffffff"
     bordercolor="#000000"
     borderopacity="0.25"
     inkscape:showpageshadow="2"
     inkscape:pageopacity="0.0"
     inkscape:pagecheckerboard="0"
     inkscape:deskcolor="#d1d1d1"
     showgrid="false"
     inkscape:zoom="0.82966809"
     inkscape:cx="463.43834"
     inkscape:cy="239.2523"
     inkscape:window-width="1383"
     inkscape:window-height="711"
     inkscape:window-x="-20"
     inkscape:window-y="134"
     inkscape:window-maximized="0"
     inkscape:current-layer="Group_24" /><title
     id="title132">Powered by React</title><g
     id="Group_24"
     data-name="Group 24"
     transform="translate(-440 -263)"><g
       id="Group_23"
       data-name="Group 23"
       transform="translate(439.989 262.965)"><path
         id="Path_299"
         data-name="Path 299"
         d="M1040.82,611.12q-1.74,3.75-3.47,7.4-2.7,5.67-5.33,11.12c-.78,1.61-1.56,3.19-2.32,4.77-8.6,17.57-16.63,33.11-23.45,45.89A73.21,73.21,0,0,1,942.44,719l-151.65,1.65h-1.6l-13,.14-11.12.12-34.1.37h-1.38l-17.36.19h-.53l-107,1.16-95.51,1-11.11.12-69,.75H429l-44.75.48h-.48l-141.5,1.53-42.33.46a87.991,87.991,0,0,1-10.79-.54h0c-1.22-.14-2.44-.3-3.65-.49a87.38,87.38,0,0,1-51.29-27.54C116,678.37,102.75,655,93.85,629.64q-1.93-5.49-3.6-11.12C59.44,514.37,97,380,164.6,290.08q4.25-5.64,8.64-11l.07-.08c20.79-25.52,44.1-46.84,68.93-62,44-26.91,92.75-34.49,140.7-11.9,40.57,19.12,78.45,28.11,115.17,30.55,3.71.24,7.42.42,11.11.53,84.23,2.65,163.17-27.7,255.87-47.29,3.69-.78,7.39-1.55,11.12-2.28,66.13-13.16,139.49-20.1,226.73-5.51a189.089,189.089,0,0,1,26.76,6.4q5.77,1.86,11.12,4c41.64,16.94,64.35,48.24,74,87.46q1.37,5.46,2.37,11.11C1134.3,384.41,1084.19,518.23,1040.82,611.12Z"
         transform="translate(-79.34 -172.91)"
         fill="#f2f2f2" /><path
         id="Path_300"
         data-name="Path 300"
         d="M576.36,618.52a95.21,95.21,0,0,1-1.87,11.12h93.7V618.52Zm-78.25,62.81,11.11-.09V653.77c-3.81-.17-7.52-.34-11.11-.52ZM265.19,618.52v11.12h198.5V618.52ZM1114.87,279h-74V191.51q-5.35-2.17-11.12-4V279H776.21V186.58c-3.73.73-7.43,1.5-11.12,2.28V279H509.22V236.15c-3.69-.11-7.4-.29-11.11-.53V279H242.24V217c-24.83,15.16-48.14,36.48-68.93,62h-.07v.08q-4.4,5.4-8.64,11h8.64V618.52h-83q1.66,5.63,3.6,11.12h79.39v93.62a87,87,0,0,0,12.2,2.79c1.21.19,2.43.35,3.65.49h0a87.991,87.991,0,0,0,10.79.54l42.33-.46v-97H498.11v94.21l11.11-.12V629.64H765.09V721l11.12-.12V629.64H1029.7v4.77c.76-1.58,1.54-3.16,2.32-4.77q2.63-5.45,5.33-11.12,1.73-3.64,3.47-7.4v-321h76.42Q1116.23,284.43,1114.87,279ZM242.24,618.52V290.08H498.11V618.52Zm267,0V290.08H765.09V618.52Zm520.48,0H776.21V290.08H1029.7Z"
         transform="translate(-79.34 -172.91)"
         opacity="0.1" /><path
         id="Path_301"
         data-name="Path 301"
         d="M863.09,533.65v13l-151.92,1.4-1.62.03-57.74.53-1.38.02-17.55.15h-.52l-106.98.99L349.77,551.4h-.15l-44.65.42-.48.01-198.4,1.82v-15l46.65-28,93.6-.78,2-.01.66-.01,2-.03,44.94-.37,2.01-.01.64-.01,2-.01L315,509.3l.38-.01,35.55-.3h.29l277.4-2.34,6.79-.05h.68l5.18-.05,37.65-.31,2-.03,1.85-.02h.96l11.71-.09,2.32-.03,3.11-.02,9.75-.09,15.47-.13,2-.02,3.48-.02h.65l74.71-.64Z"
         fill="#65617d" /><path
         id="Path_302"
         data-name="Path 302"
         d="M863.09,533.65v13l-151.92,1.4-1.62.03-57.74.53-1.38.02-17.55.15h-.52l-106.98.99L349.77,551.4h-.15l-44.65.42-.48.01-198.4,1.82v-15l46.65-28,93.6-.78,2-.01.66-.01,2-.03,44.94-.37,2.01-.01.64-.01,2-.01L315,509.3l.38-.01,35.55-.3h.29l277.4-2.34,6.79-.05h.68l5.18-.05,37.65-.31,2-.03,1.85-.02h.96l11.71-.09,2.32-.03,3.11-.02,9.75-.09,15.47-.13,2-.02,3.48-.02h.65l74.71-.64Z"
         opacity="0.2" /><path
         id="Path_303"
         data-name="Path 303"
         d="M375.44,656.57v24.49a6.13,6.13,0,0,1-3.5,5.54,6,6,0,0,1-2.5.6l-34.9.74a6,6,0,0,1-2.7-.57,6.12,6.12,0,0,1-3.57-5.57V656.57Z"
         transform="translate(-79.34 -172.91)"
         fill="#3f3d56" /><path
         id="Path_304"
         data-name="Path 304"
         d="M375.44,656.57v24.49a6.13,6.13,0,0,1-3.5,5.54,6,6,0,0,1-2.5.6l-34.9.74a6,6,0,0,1-2.7-.57,6.12,6.12,0,0,1-3.57-5.57V656.57Z"
         transform="translate(-79.34 -172.91)"
         opacity="0.1" /><path
         id="Path_305"
         data-name="Path 305"
         d="M377.44,656.57v24.49a6.13,6.13,0,0,1-3.5,5.54,6,6,0,0,1-2.5.6l-34.9.74a6,6,0,0,1-2.7-.57,6.12,6.12,0,0,1-3.57-5.57V656.57Z"
         transform="translate(-79.34 -172.91)"
         fill="#3f3d56" /><rect
         id="Rectangle_137"
         data-name="Rectangle 137"
         width="47.17"
         height="31.5"
         transform="translate(680.92 483.65)"
         fill="#3f3d56" /><rect
         id="Rectangle_138"
         data-name="Rectangle 138"
         width="47.17"
         height="31.5"
         transform="translate(680.92 483.65)"
         opacity="0.1" /><rect
         id="Rectangle_139"
         data-name="Rectangle 139"
         width="47.17"
         height="31.5"
         transform="translate(678.92 483.65)"
         fill="#3f3d56" /><path
         id="Path_306"
         data-name="Path 306"
         d="M298.09,483.65v4.97l-47.17,1.26v-6.23Z"
         opacity="0.1" /><path
         id="Path_307"
         data-name="Path 307"
         d="M460.69,485.27v168.2a4,4,0,0,1-3.85,3.95l-191.65,5.1h-.05a4,4,0,0,1-3.95-3.95V485.27a4,4,0,0,1,3.95-3.95h191.6a4,4,0,0,1,3.95,3.95Z"
         transform="translate(-79.34 -172.91)"
         fill="#65617d" /><path
         id="Path_308"
         data-name="Path 308"
         d="M265.19,481.32v181.2h-.05a4,4,0,0,1-3.95-3.95V485.27a4,4,0,0,1,3.95-3.95Z"
         transform="translate(-79.34 -172.91)"
         opacity="0.1" /><path
         id="Path_309"
         data-name="Path 309"
         d="M194.59,319.15h177.5V467.4l-177.5,4Z"
         fill="#39374d" /><path
         id="Path_310"
         data-name="Path 310"
         d="M726.09,483.65v6.41l-47.17-1.26v-5.15Z"
         opacity="0.1" /><path
         id="Path_311"
         data-name="Path 311"
         d="M867.69,485.27v173.3a4,4,0,0,1-4,3.95h0L672,657.42a4,4,0,0,1-3.85-3.95V485.27a4,4,0,0,1,3.95-3.95H863.7a4,4,0,0,1,3.99,3.95Z"
         transform="translate(-79.34 -172.91)"
         fill="#65617d" /><path
         id="Path_312"
         data-name="Path 312"
         d="M867.69,485.27v173.3a4,4,0,0,1-4,3.95h0V481.32h0a4,4,0,0,1,4,3.95Z"
         transform="translate(-79.34 -172.91)"
         opacity="0.1" /><path
         id="Path_313"
         data-name="Path 313"
         d="M775.59,319.15H598.09V467.4l177.5,4Z"
         fill="#39374d" /><path
         id="Path_314"
         data-name="Path 314"
         d="M663.19,485.27v168.2a4,4,0,0,1-3.85,3.95l-191.65,5.1h0a4,4,0,0,1-4-3.95V485.27a4,4,0,0,1,3.95-3.95h191.6A4,4,0,0,1,663.19,485.27Z"
         transform="translate(-79.34 -172.91)"
         fill="#65617d" /><path
         id="Path_315"
         data-name="Path 315"
         d="M397.09,319.15h177.5V467.4l-177.5,4Z"
         fill="#4267b2" /><path
         id="Path_316"
         data-name="Path 316"
         d="M863.09,533.65v13l-151.92,1.4-1.62.03-57.74.53-1.38.02-17.55.15h-.52l-106.98.99L349.77,551.4h-.15l-44.65.42-.48.01-198.4,1.82v-15l202.51-1.33h.48l40.99-.28h.19l283.08-1.87h.29l.17-.01h.47l4.79-.03h1.46l74.49-.5,4.4-.02.98-.01Z"
         opacity="0.1" /><circle
         id="Ellipse_111"
         data-name="Ellipse 111"
         cx="51.33"
         cy="51.33"
         r="51.33"
         transform="translate(435.93 246.82)"
         fill="#fbbebe" /><path
         id="Path_317"
         data-name="Path 317"
         d="M617.94,550.07s-99.5,12-90,0c3.44-4.34,4.39-17.2,4.2-31.85-.06-4.45-.22-9.06-.45-13.65-1.1-22-3.75-43.5-3.75-43.5s87-41,77-8.5c-4,13.13-2.69,31.57.35,48.88.89,5.05,1.92,10,3,14.7a344.66,344.66,0,0,0,9.65,33.92Z"
         transform="translate(-79.34 -172.91)"
         fill="#fbbebe" /><path
         id="Path_318"
         data-name="Path 318"
         d="M585.47,546c11.51-2.13,23.7-6,34.53-1.54,2.85,1.17,5.47,2.88,8.39,3.86s6.12,1.22,9.16,1.91c10.68,2.42,19.34,10.55,24.9,20s8.44,20.14,11.26,30.72l6.9,25.83c6,22.45,12,45.09,13.39,68.3a2437.506,2437.506,0,0,1-250.84,1.43c5.44-10.34,11-21.31,10.54-33s-7.19-23.22-4.76-34.74c1.55-7.34,6.57-13.39,9.64-20.22,8.75-19.52,1.94-45.79,17.32-60.65,6.92-6.68,17-9.21,26.63-8.89,12.28.41,24.85,4.24,37,6.11C555.09,547.48,569.79,548.88,585.47,546Z"
         transform="translate(-79.34 -172.91)"
         fill="#ff6584" /><path
         id="Path_319"
         data-name="Path 319"
         d="M716.37,657.17l-.1,1.43v.1l-.17,2.3-1.33,18.51-1.61,22.3-.46,6.28-1,13.44v.17l-107,1-175.59,1.9v.84h-.14v-1.12l.45-14.36.86-28.06.74-23.79.07-2.37a10.53,10.53,0,0,1,11.42-10.17c4.72.4,10.85.89,18.18,1.41l3,.22c42.33,2.94,120.56,6.74,199.5,2,1.66-.09,3.33-.19,5-.31,12.24-.77,24.47-1.76,36.58-3a10.53,10.53,0,0,1,11.6,11.23Z"
         transform="translate(-79.34 -172.91)"
         opacity="0.1" /><path
         id="Path_320"
         data-name="Path 320"
         d="M429.08,725.44v-.84l175.62-1.91,107-1h.3v-.17l1-13.44.43-6,1.64-22.61,1.29-17.9v-.44a10.617,10.617,0,0,0-.11-2.47.3.3,0,0,0,0-.1,10.391,10.391,0,0,0-2-4.64,10.54,10.54,0,0,0-9.42-4c-12.11,1.24-24.34,2.23-36.58,3-1.67.12-3.34.22-5,.31-78.94,4.69-157.17.89-199.5-2l-3-.22c-7.33-.52-13.46-1-18.18-1.41a10.54,10.54,0,0,0-11.24,8.53,11,11,0,0,0-.18,1.64l-.68,22.16L429.54,710l-.44,14.36v1.12Z"
         transform="translate(-79.34 -172.91)"
         fill="#3f3d56" /><path
         id="Path_321"
         data-name="Path 321"
         d="M716.67,664.18l-1.23,15.33-1.83,22.85-.46,5.72-1,12.81-.06.64v.17h0l-.15,1.48.11-1.48h-.29l-107,1-175.65,1.9v-.28l.49-14.36,1-28.06.64-18.65A6.36,6.36,0,0,1,434.3,658a6.25,6.25,0,0,1,3.78-.9c2.1.17,4.68.37,7.69.59,4.89.36,10.92.78,17.94,1.22,13,.82,29.31,1.7,48,2.42,52,2,122.2,2.67,188.88-3.17,3-.26,6.1-.55,9.13-.84a6.26,6.26,0,0,1,3.48.66,5.159,5.159,0,0,1,.86.54,6.14,6.14,0,0,1,2,2.46,3.564,3.564,0,0,1,.25.61A6.279,6.279,0,0,1,716.67,664.18Z"
         transform="translate(-79.34 -172.91)"
         opacity="0.1" /><path
         id="Path_322"
         data-name="Path 322"
         d="M377.44,677.87v3.19a6.13,6.13,0,0,1-3.5,5.54l-40.1.77a6.12,6.12,0,0,1-3.57-5.57v-3Z"
         transform="translate(-79.34 -172.91)"
         opacity="0.1" /><path
         id="Path_323"
         data-name="Path 323"
         d="M298.59,515.57l-52.25,1V507.9l52.25-1Z"
         fill="#3f3d56" /><path
         id="Path_324"
         data-name="Path 324"
         d="M298.59,515.57l-52.25,1V507.9l52.25-1Z"
         opacity="0.1" /><path
         id="Path_325"
         data-name="Path 325"
         d="M300.59,515.57l-52.25,1V507.9l52.25-1Z"
         fill="#3f3d56" /><path
         id="Path_326"
         data-name="Path 326"
         d="M758.56,679.87v3.19a6.13,6.13,0,0,0,3.5,5.54l40.1.77a6.12,6.12,0,0,0,3.57-5.57v-3Z"
         transform="translate(-79.34 -172.91)"
         opacity="0.1" /><path
         id="Path_327"
         data-name="Path 327"
         d="M678.72,517.57l52.25,1V509.9l-52.25-1Z"
         opacity="0.1" /><path
         id="Path_328"
         data-name="Path 328"
         d="M676.72,517.57l52.25,1V509.9l-52.25-1Z"
         fill="#3f3d56" /><path
         id="Path_329"
         data-name="Path 329"
         d="M534.13,486.79c.08,7-3.16,13.6-5.91,20.07a163.491,163.491,0,0,0-12.66,74.71c.73,11,2.58,22,.73,32.9s-8.43,21.77-19,24.9c17.53,10.45,41.26,9.35,57.76-2.66,8.79-6.4,15.34-15.33,21.75-24.11a97.86,97.86,0,0,1-13.31,44.75A103.43,103.43,0,0,0,637,616.53c4.31-5.81,8.06-12.19,9.72-19.23,3.09-13-1.22-26.51-4.51-39.5a266.055,266.055,0,0,1-6.17-33c-.43-3.56-.78-7.22.1-10.7,1-4.07,3.67-7.51,5.64-11.22,5.6-10.54,5.73-23.3,2.86-34.88s-8.49-22.26-14.06-32.81c-4.46-8.46-9.3-17.31-17.46-22.28-5.1-3.1-11-4.39-16.88-5.64l-25.37-5.43c-5.55-1.19-11.26-2.38-16.87-1.51-9.47,1.48-16.14,8.32-22,15.34-4.59,5.46-15.81,15.71-16.6,22.86-.72,6.59,5.1,17.63,6.09,24.58,1.3,9,2.22,6,7.3,11.52C532,478.05,534.07,482,534.13,486.79Z"
         transform="translate(-79.34 -172.91)"
         fill="#3f3d56" /></g><g
       id="g2595"
       transform="translate(661.98651,589.85345)"><path
         fill="#ffc131"
         d="m 86.242,46.547 a 12.19,12.19 0 0 1 -24.379,0 c 0,-6.734 5.457,-12.191 12.191,-12.191 a 12.19,12.19 0 0 1 12.188,12.191 z m 0,0"
         id="path2577" /><path
         fill="#24c8db"
         d="m 41.359,81.453 a 12.1915,12.1915 0 1 1 24.383,0 c 0,6.734 -5.457,12.191 -12.191,12.191 -6.734,0 -12.191,-5.457 -12.191,-12.191 z m 0,0"
         id="path2579" /><path
         fill="#ffc131"
         d="M 99.316,85.637 A 46.5,46.5 0 0 1 83.257,92.172 32.675,32.675 0 0 0 85.054,81.453 33.3,33.3 0 0 0 84.812,77.433 32.69,32.69 0 0 0 91.808,74.015 32.7,32.7 0 0 0 103.874,59.98 32.71,32.71 0 0 0 82.863,15.046 32.72,32.72 0 0 0 48.953,25.573 32.85,32.85 0 0 0 47.473,27.483 54.32,54.32 0 0 0 29.625,32.667 46.536,46.536 0 0 1 60.25,2.094 46.53,46.53 0 0 1 86.59,1.719 c 8.633,2.418 16.387,7.273 22.324,13.984 5.937,6.711 9.813,15 11.16,23.863 A 46.537,46.537 0 0 1 99.316,85.637 Z M 30.18,41.156 41.59,42.558 a 32.44,32.44 0 0 1 1.473,-6.469 46.44,46.44 0 0 0 -12.883,5.066 z m 0,0"
         id="path2581" /><path
         fill="#24c8db"
         d="m 28.207,42.363 a 46.49,46.49 0 0 1 16.188,-6.559 32.603,32.603 0 0 0 -2.004,11.297 32.56,32.56 0 0 0 0.188,3.512 32.738,32.738 0 0 0 -6.859,3.371 32.7,32.7 0 0 0 -12.068,14.036 c -2.59,5.742 -3.461,12.113 -2.52,18.34 0.941,6.227 3.668,12.051 7.844,16.77 4.176,4.719 9.617,8.129 15.684,9.824 6.067,1.695 12.496,1.605 18.512,-0.262 a 32.72,32.72 0 0 0 15.402,-10.266 34.9,34.9 0 0 0 1.484,-1.918 54.283,54.283 0 0 0 17.855,-5.223 46.528,46.528 0 0 1 -8.723,16.012 46.511,46.511 0 0 1 -21.918,14.609 46.53,46.53 0 0 1 -26.34,0.375 A 46.6,46.6 0 0 1 18.608,112.297 46.56,46.56 0 0 1 7.453,88.434 46.53,46.53 0 0 1 11.035,62.336 46.533,46.533 0 0 1 28.207,42.363 Z m 69.074,44.473 c -0.059,0.035 -0.121,0.066 -0.18,0.102 0.059,-0.035 0.121,-0.066 0.18,-0.102 z m 0,0"
         id="path2583" /></g><g
       style="fill:none"
       id="g5539"
       transform="translate(1058.1466,633.75754)"><g
         clip-path="url(#clip0_1102_45357)"
         id="g5517"><path
           d="M 5.48589,41.6226 28.5964,25.5046 c 0,0 1.0429,-0.6029 1.0429,-1.5543 0,-1.2671 -1.3189,-1.6792 -1.3189,-1.6792 L 15.6065,17.2077 c -0.4536,-0.1789 -1.078,0.3227 -0.4934,0.9585 l 4.2091,4.2391 c 0,0 1.1692,1.1564 1.1692,1.9147 0,0.7583 -0.7178,1.4342 -0.7178,1.4342 L 4.457,40.6476 c -0.54485,0.5299 0.19174,1.4908 1.02889,0.975 z"
           fill="#2379f4"
           id="path5501" /><path
           d="M 24.1534,0.760004 1.04294,16.8757 c 0,0 -1.04293237061,0.6029 -1.04293237061,1.5543 0,1.267 1.31886237061,1.6792 1.31886237061,1.6792 l 12.71393,5.0657 c 0.4536,0.1766 1.0803,-0.325 0.4934,-0.9585 l -4.2091,-4.2532 c 0,0 -1.16924,-1.154 -1.16924,-1.9147 0,-0.7607 0.71789,-1.4342 0.71789,-1.4342 L 25.173,1.73264 C 25.7272,1.20276 24.9929,0.241891 24.1534,0.760004 Z"
           fill="#2379f4"
           id="path5503" /><path
           d="M 60.9241,25.868 C 59.4368,24.7437 57.3528,24.004 54.672,23.649 l -4.9411,-0.6352 c -1.3256,-0.1646 -2.3429,-0.466 -3.0516,-0.9043 -0.3359,-0.1916 -0.613,-0.4725 -0.801,-0.812 -0.188,-0.3395 -0.2796,-0.7246 -0.2649,-1.113 0,-1.9861 1.8729,-2.9782 5.6186,-2.9763 2.1295,-0.0299 4.2471,0.3253 6.2521,1.0485 0.6153,0.2176 1.2076,0.4963 1.7682,0.8321 0.2996,0.1772 0.5826,0.3814 0.8455,0.6102 0.1583,-0.071 0.3058,-0.1644 0.4379,-0.2773 0.2059,-0.1611 0.391,-0.3475 0.5509,-0.5548 0.1869,-0.2439 0.3493,-0.5059 0.4847,-0.7822 0.1516,-0.3192 0.2262,-0.6699 0.2176,-1.0236 0,-1.2038 -0.9282,-2.1802 -2.7845,-2.9291 -1.8564,-0.7489 -4.4646,-1.1188 -7.8247,-1.1095 -1.7238,-0.0353 -3.4441,0.17 -5.1119,0.6102 -1.2395,0.3235 -2.4012,0.8962 -3.4152,1.6837 -0.83,0.6529 -1.4914,1.4979 -1.9279,2.4632 -0.4051,0.9301 -0.6115,1.9356 -0.6059,2.9513 -0.0297,1.0706 0.195,2.1329 0.6555,3.0984 0.4298,0.8557 1.0511,1.5992 1.815,2.1719 0.8441,0.6183 1.7867,1.0873 2.7872,1.3869 1.1599,0.3581 2.3532,0.5951 3.5612,0.7073 l 3.7788,0.441 c 1.7443,0.185 2.9553,0.5178 3.6328,0.9986 0.3318,0.2291 0.5995,0.5403 0.7775,0.9036 0.178,0.3634 0.2602,0.7667 0.2388,1.1712 0,1.0744 -0.5325,1.8308 -1.5974,2.269 -1.065,0.4383 -2.4421,0.6574 -4.1313,0.6574 -1.1996,0.0072 -2.3976,-0.0903 -3.5805,-0.2912 -0.9912,-0.1706 -1.9702,-0.4069 -2.9305,-0.7074 -0.7325,-0.2306 -1.4523,-0.5 -2.1565,-0.8071 -0.4224,-0.173 -0.828,-0.3847 -1.2119,-0.6325 l -2.0822,3.7558 c 0.3953,0.2841 0.8168,0.5293 1.2587,0.7323 0.8236,0.3942 1.6741,0.7288 2.5449,1.0013 1.214,0.3813 2.4515,0.6825 3.7044,0.9015 1.568,0.2731 3.1571,0.404 4.7483,0.3911 3.6153,0 6.3851,-0.7323 8.3094,-2.1968 0.9193,-0.6644 1.6628,-1.5455 2.1655,-2.5663 0.5028,-1.0208 0.7493,-2.1502 0.7182,-3.2893 0.0183,-2.1821 -0.7152,-3.8353 -2.2006,-4.9596 z"
           fill="#000000"
           id="path5505"
           style="fill:#ffffff;fill-opacity:1" /><path
           d="m 72.164,2.22674 c -0.9364,0 -1.6525,0.21358 -2.1813,0.6352 -0.5288,0.42163 -0.7739,1.07347 -0.7739,1.94168 V 38.1893 H 74.731 V 2.76486 C 74.5685,2.70106 74.2462,2.59288 73.7615,2.44864 73.2427,2.29616 72.7044,2.22139 72.164,2.22674 Z"
           fill="#000000"
           id="path5507"
           style="fill:#ffffff;fill-opacity:1" /><path
           d="M 84.9243,2.71493 C 84.4838,2.70972 84.0467,2.79326 83.6387,2.96065 83.2306,3.12803 82.86,3.37588 82.5485,3.68962 82.237,4.00335 81.9909,4.37665 81.8247,4.78756 c -0.1662,0.4109 -0.2492,0.85113 -0.244,1.29479 0.0028,0.55261 0.1405,1.09604 0.4012,1.58235 0.2606,0.4863 0.6361,0.90053 1.0932,1.20615 0.4572,0.30561 0.982,0.49322 1.5282,0.54626 C 85.1495,9.47015 85.7002,9.387 86.207,9.175 86.7137,8.96299 87.1608,8.62865 87.5089,8.20146 87.857,7.77427 88.0954,7.26737 88.203,6.72547 88.3105,6.18358 88.2841,5.62334 88.1258,5.0942 87.9676,4.56505 87.6825,4.08325 87.2957,3.69131 86.9875,3.37419 86.6181,3.12396 86.2103,2.95604 85.8024,2.78812 85.3648,2.70607 84.9243,2.71493 Z"
           fill="#000000"
           id="path5509"
           style="fill:#ffffff;fill-opacity:1" /><path
           d="m 85.1088,13.6993 c -0.9364,0 -1.6525,0.2052 -2.1813,0.6102 -0.5288,0.405 -0.7657,1.0541 -0.7657,1.9694 V 38.1921 H 87.684 V 14.2318 c -0.1625,-0.0665 -0.4847,-0.1719 -0.9695,-0.3189 -0.5222,-0.149 -1.063,-0.221 -1.6057,-0.2136 z"
           fill="#000000"
           id="path5511"
           style="fill:#ffffff;fill-opacity:1" /><path
           d="m 115.149,15.7685 c -1.105,-0.9261 -2.381,-1.6228 -3.754,-2.0498 -1.536,-0.4839 -3.139,-0.7226 -4.748,-0.7074 -1.602,-0.0168 -3.196,0.222 -4.724,0.7074 -1.365,0.4308 -2.6329,1.1272 -3.7317,2.0498 -1.0532,0.8939 -1.8993,2.0092 -2.4788,3.2676 -0.6128,1.3732 -0.9157,2.8662 -0.8869,4.3715 v 14.7845 h 5.5224 V 24.8223 c 0,-2.2191 0.525,-3.9028 1.575,-5.0512 1.051,-1.1483 2.625,-1.7253 4.724,-1.7308 2.065,0 3.632,0.5769 4.698,1.7308 1.067,1.154 1.601,2.8377 1.601,5.0512 v 13.3698 h 5.522 V 23.4076 c 0.029,-1.5025 -0.264,-2.9937 -0.86,-4.3715 -0.566,-1.2611 -1.406,-2.3778 -2.459,-3.2676 z"
           fill="#000000"
           id="path5513"
           style="fill:#ffffff;fill-opacity:1" /><path
           d="m 138.766,32.675 c -0.542,0.3524 -1.129,0.6322 -1.743,0.8321 -0.84,0.2978 -1.724,0.4471 -2.614,0.4411 -0.563,0.0025 -1.124,-0.0627 -1.672,-0.1942 -0.512,-0.1207 -0.992,-0.3537 -1.404,-0.6824 -0.418,-0.3449 -0.743,-0.7904 -0.945,-1.2953 -0.248,-0.6614 -0.363,-1.3656 -0.339,-2.0721 V 18.817 h 9.301 c 0.148,-0.3252 0.278,-0.6586 0.389,-0.9986 0.164,-0.4962 0.246,-1.0164 0.242,-1.5395 0,-0.8321 -0.218,-1.4868 -0.656,-1.925 -0.437,-0.4383 -1.189,-0.6546 -2.255,-0.6546 h -7.024 V 7.31947 C 129.884,7.2529 129.553,7.14749 129.052,7.00048 128.524,6.85159 127.978,6.77783 127.43,6.78135 126.672,6.7383 125.921,6.95322 125.298,7.39159 124.769,7.7827 124.522,8.429 124.522,9.35268 V 30.8193 c 0,2.404 0.727,4.3456 2.181,5.825 1.454,1.4794 3.602,2.2191 6.445,2.2191 0.925,0.0032 1.848,-0.0897 2.754,-0.2774 0.775,-0.1612 1.536,-0.3809 2.278,-0.6574 0.597,-0.223 1.172,-0.5016 1.718,-0.8321 0.469,-0.2941 0.836,-0.5382 1.102,-0.7323 z"
           fill="#000000"
           id="path5515"
           style="fill:#ffffff;fill-opacity:1" /></g></g></g></svg>
